<svg width="54" height="53" viewBox="0 0 54 53" fill="none" xmlns="http://www.w3.org/2000/svg">
<path d="M22.2978 17.5552V11.333V17.5552ZM34.7422 17.5552V11.333V17.5552ZM20.7422 23.7775H36.2978H20.7422ZM17.6311 39.333H39.4089C40.234 39.333 41.0253 39.0052 41.6088 38.4218C42.1922 37.8383 42.52 37.047 42.52 36.2219V17.5552C42.52 16.7301 42.1922 15.9388 41.6088 15.3553C41.0253 14.7719 40.234 14.4441 39.4089 14.4441H17.6311C16.806 14.4441 16.0147 14.7719 15.4312 15.3553C14.8478 15.9388 14.52 16.7301 14.52 17.5552V36.2219C14.52 37.047 14.8478 37.8383 15.4312 38.4218C16.0147 39.0052 16.806 39.333 17.6311 39.333Z" stroke="black" stroke-width="3" stroke-linecap="round" stroke-linejoin="round"/>
</svg>
