<svg xmlns="http://www.w3.org/2000/svg" width="65" height="65" fill="none"><rect width="63" height="63" x="1.362" y="1" fill="#000" stroke="#A6A6A6" stroke-width="1.214" rx="31.5"/><g fill="#fff"><path d="M42.76 32.272c-.048-5.053 4.323-7.512 4.523-7.626-2.476-3.454-6.312-3.927-7.66-3.964-3.222-.325-6.348 1.845-7.989 1.845-1.674 0-4.202-1.814-6.926-1.76-3.505.051-6.785 1.994-8.583 5.01-3.712 6.151-.944 15.19 2.613 20.162 1.779 2.435 3.857 5.154 6.578 5.059 2.662-.105 3.656-1.625 6.869-1.625 3.182 0 4.116 1.625 6.89 1.563 2.858-.044 4.656-2.446 6.373-4.903 2.056-2.79 2.881-5.539 2.914-5.68-.067-.022-5.548-2.024-5.602-8.081ZM37.518 17.411c1.432-1.714 2.411-4.045 2.14-6.411-2.073.088-4.664 1.372-6.157 3.048-1.32 1.477-2.5 3.898-2.195 6.175 2.328.166 4.718-1.125 6.212-2.812Z"/></g></svg>