<svg xmlns="http://www.w3.org/2000/svg" width="65" height="65" fill="none"><rect width="63" height="63" x="1.362" y="1" fill="#000" stroke="#A6A6A6" stroke-width="1.212" rx="31.5"/><path fill="url(#a)" d="M20.549 15.457c-.412.42-.65 1.075-.65 1.923v30.245c0 .848.238 1.503.65 1.923l.102.093L38.01 32.699v-.4L20.65 15.357l-.101.1Z"/><path fill="url(#b)" d="m43.79 38.35-5.78-5.65v-.4l5.787-5.65.13.073 6.853 3.807c1.956 1.08 1.956 2.858 0 3.946l-6.854 3.8-.136.074Z"/><path fill="url(#c)" d="M43.927 38.275 38.01 32.5 20.55 49.547c.649.666 1.708.747 2.913.08l20.464-11.353Z"/><path fill="url(#d)" d="M43.926 26.723 23.463 15.37c-1.205-.66-2.264-.58-2.914.088L38.01 32.5l5.917-5.777Z"/><defs><linearGradient id="a" x1="36.468" x2="13.523" y1="47.94" y2="24.438" gradientUnits="userSpaceOnUse"><stop stop-color="#00A0FF"/><stop offset=".007" stop-color="#00A1FF"/><stop offset=".26" stop-color="#00BEFF"/><stop offset=".512" stop-color="#00D2FF"/><stop offset=".76" stop-color="#00DFFF"/><stop offset="1" stop-color="#00E3FF"/></linearGradient><linearGradient id="b" x1="53.327" x2="19.432" y1="32.498" y2="32.498" gradientUnits="userSpaceOnUse"><stop stop-color="#FFE000"/><stop offset=".409" stop-color="#FFBD00"/><stop offset=".775" stop-color="orange"/><stop offset="1" stop-color="#FF9C00"/></linearGradient><linearGradient id="c" x1="40.709" x2="9.593" y1="29.358" y2="-2.512" gradientUnits="userSpaceOnUse"><stop stop-color="#FF3A44"/><stop offset="1" stop-color="#C31162"/></linearGradient><linearGradient id="d" x1="16.154" x2="30.049" y1="59.612" y2="45.38" gradientUnits="userSpaceOnUse"><stop stop-color="#32A071"/><stop offset=".069" stop-color="#2DA771"/><stop offset=".476" stop-color="#15CF74"/><stop offset=".801" stop-color="#06E775"/><stop offset="1" stop-color="#00F076"/></linearGradient></defs></svg>