<svg width="65" height="65" viewBox="0 0 65 65" fill="none" xmlns="http://www.w3.org/2000/svg">
<g id="Group 48095398">
<g id="Group 48095398_2">
<rect id="Rectangle 39360" x="1.36206" y="1" width="63" height="63" rx="31.5" fill="black" stroke="#A6A6A6" stroke-width="1.21154"/>
<g id="Group 48095399">
<g id="g48">
<path id="path64" d="M20.5489 15.4565C20.1374 15.877 19.8993 16.5318 19.8993 17.3797V47.6251C19.8993 48.473 20.1374 49.1278 20.5489 49.5483L20.6505 49.6406L38.0096 32.699V32.299L20.6505 15.3573L20.5489 15.4565Z" fill="url(#paint0_linear_502_6441)"/>
</g>
<g id="g66">
<path id="path78" d="M43.79 38.3496L38.01 32.6996V32.2995L43.797 26.6495L43.9265 26.723L50.7799 30.5301C52.7357 31.6106 52.7357 33.3885 50.7799 34.4758L43.9265 38.2761L43.79 38.3496Z" fill="url(#paint1_linear_502_6441)"/>
</g>
<g id="g80">
<path id="path88" d="M43.9266 38.2751L38.0101 32.4985L20.5494 49.5478C21.199 50.2145 22.2584 50.2949 23.463 49.6282L43.9266 38.2751Z" fill="url(#paint2_linear_502_6441)"/>
</g>
<g id="g90">
<path id="path104" d="M43.9264 26.7234L23.4628 15.3703C22.2581 14.7104 21.1988 14.7908 20.5492 15.4575L38.0099 32.5L43.9264 26.7234Z" fill="url(#paint3_linear_502_6441)"/>
</g>
</g>
</g>
</g>
<defs>
<linearGradient id="paint0_linear_502_6441" x1="36.4683" y1="47.94" x2="13.5226" y2="24.4384" gradientUnits="userSpaceOnUse">
<stop stop-color="#00A0FF"/>
<stop offset="0.0066" stop-color="#00A1FF"/>
<stop offset="0.2601" stop-color="#00BEFF"/>
<stop offset="0.5122" stop-color="#00D2FF"/>
<stop offset="0.7604" stop-color="#00DFFF"/>
<stop offset="1" stop-color="#00E3FF"/>
</linearGradient>
<linearGradient id="paint1_linear_502_6441" x1="53.3267" y1="32.4976" x2="19.4322" y2="32.4976" gradientUnits="userSpaceOnUse">
<stop stop-color="#FFE000"/>
<stop offset="0.4087" stop-color="#FFBD00"/>
<stop offset="0.7754" stop-color="#FFA500"/>
<stop offset="1" stop-color="#FF9C00"/>
</linearGradient>
<linearGradient id="paint2_linear_502_6441" x1="40.7094" y1="29.3583" x2="9.59319" y2="-2.51193" gradientUnits="userSpaceOnUse">
<stop stop-color="#FF3A44"/>
<stop offset="1" stop-color="#C31162"/>
</linearGradient>
<linearGradient id="paint3_linear_502_6441" x1="16.1539" y1="59.6118" x2="30.0487" y2="45.3805" gradientUnits="userSpaceOnUse">
<stop stop-color="#32A071"/>
<stop offset="0.0685" stop-color="#2DA771"/>
<stop offset="0.4762" stop-color="#15CF74"/>
<stop offset="0.8009" stop-color="#06E775"/>
<stop offset="1" stop-color="#00F076"/>
</linearGradient>
</defs>
</svg>
