<svg width="25" height="24" viewBox="0 0 25 24" fill="none" xmlns="http://www.w3.org/2000/svg">
<g id="24 / basic / circle-plus/on">
<path id="icon" fill-rule="evenodd" clip-rule="evenodd" d="M12.8535 23C6.77838 23 1.85352 18.0751 1.85352 12C1.85352 5.92487 6.77838 1 12.8535 1C18.9286 1 23.8535 5.92487 23.8535 12C23.8535 18.0751 18.9286 23 12.8535 23ZM12.8535 21C17.8241 21 21.8535 16.9706 21.8535 12C21.8535 7.02944 17.8241 3 12.8535 3C7.88295 3 3.85352 7.02944 3.85352 12C3.85352 16.9706 7.88295 21 12.8535 21ZM17.8535 11H7.85352V13H17.8535V11Z" fill="#6899D8"/>
</g>
</svg>
