<svg width="25" height="24" viewBox="0 0 25 24" fill="none" xmlns="http://www.w3.org/2000/svg">
<g id="24 / basic / circle-plus">
<path id="icon" fill-rule="evenodd" clip-rule="evenodd" d="M12.3621 23C6.28693 23 1.36206 18.0751 1.36206 12C1.36206 5.92487 6.28693 1 12.3621 1C18.4372 1 23.3621 5.92487 23.3621 12C23.3621 18.0751 18.4372 23 12.3621 23ZM12.3621 21C17.3326 21 21.3621 16.9706 21.3621 12C21.3621 7.02944 17.3326 3 12.3621 3C7.3915 3 3.36206 7.02944 3.36206 12C3.36206 16.9706 7.3915 21 12.3621 21ZM17.3621 11H13.3621V7H11.3621V11H7.36206V13H11.3621V17H13.3621V13H17.3621V11Z" fill="#6899D8"/>
</g>
</svg>
